<?xml version="1.0" encoding="iso-8859-1"?>
<!-- Uploaded to: SVG Repo, www.svgrepo.com, Generator: SVG Repo Mixer Tools -->
<svg height="800px" width="800px" version="1.1" id="Layer_1" xmlns="http://www.w3.org/2000/svg" xmlns:xlink="http://www.w3.org/1999/xlink" 
	 viewBox="0 0 512 512" xml:space="preserve">
<circle style="fill:#79C9DB;" cx="256" cy="256" r="256"/>
<path style="fill:#99DBFF;" d="M256,512C114.615,512,0,397.385,0,256S114.615,0,256,0V512z"/>
<path style="fill:#9F4F45;" d="M238.425,191.116c-8.716-35.897-40.86-61.169-77.799-61.169H33.149C12.055,167.159,0,210.169,0,256
	c0,141.385,114.615,256,256,256c17.226,0,34.051-1.713,50.324-4.959l3.584-21.54L238.425,191.116z"/>
<path style="fill:#C26053;" d="M256,263.494l-17.575-72.378c-8.716-35.897-40.86-61.169-77.799-61.169H33.149
	C12.055,167.159,0,210.169,0,256c0,141.385,114.615,256,256,256V263.494z"/>
<path style="fill:#FD774F;" d="M106.375,236.188H0.787C0.285,242.729,0,249.331,0,256c0,130.384,97.473,238.001,223.526,253.958
	l-50.545-218.74C165.52,258.925,138,236.188,106.375,236.188z"/>
<path style="fill:#FEAB00;" d="M238.425,191.116c-8.716-35.897-40.86-61.169-77.799-61.169H33.149
	c-11.898,20.992-20.918,43.828-26.524,67.975h233.453L238.425,191.116z"/>
<path style="fill:#9F4F45;" d="M512,256h-0.761H410.327c-28.564,0-53.421,19.543-60.161,47.302l-47.252,204.394
	C421.891,485.658,512,381.359,512,256z"/>
<path style="fill:#FEAB00;" d="M172.982,291.219c-7.462-32.294-34.982-55.03-66.607-55.03H0.787C0.285,242.729,0,249.331,0,256
	c0,17.268,1.727,34.132,4.986,50.442H176.5L172.982,291.219z"/>
<path style="fill:#D29500;" d="M512,256h-0.761H410.327c-28.564,0-53.421,19.543-60.161,47.302l-0.762,3.14h157.619
	C510.281,290.132,512,273.268,512,256z"/>
</svg>