<?xml version="1.0" encoding="iso-8859-1"?>
<!-- Uploaded to: SVG Repo, www.svgrepo.com, Generator: SVG Repo Mixer Tools -->
<svg height="800px" width="800px" version="1.1" id="Layer_1" xmlns="http://www.w3.org/2000/svg" xmlns:xlink="http://www.w3.org/1999/xlink" 
	 viewBox="0 0 512 512" xml:space="preserve">
<circle style="fill:#79C9DB;" cx="255.758" cy="256" r="255.758"/>
<path style="fill:#99DBFF;" d="M255.758,0.243C114.731,0.505,0.484,114.906,0.484,255.996s114.247,255.489,255.274,255.751V0.243z"
	/>
<path style="fill:#924045;" d="M86.504,170.584L0.491,256.597c0.326,140.974,114.7,255.155,255.751,255.155
	c66.177,0,126.485-25.135,171.897-66.379L136.435,170.584C122.648,156.796,100.293,156.796,86.504,170.584z"/>
<path style="fill:#C55C51;" d="M382.073,123.433c-13.788-13.788-36.143-13.788-49.931,0L49.142,406.069
	c46.483,64.034,121.921,105.685,207.1,105.685C397.493,511.754,512,397.247,512,255.996c0-0.77-0.022-1.535-0.029-2.303
	L382.073,123.433z"/>
<path style="fill:#FD774F;" d="M255.758,199.719L49.142,406.069c46.394,63.912,121.636,105.519,206.616,105.677V199.719z"/>
<path style="fill:#D29500;" d="M256.242,511.754c74.715,0,141.938-32.042,188.7-83.129l-421.209-65.97
	C64.165,450.646,153.062,511.754,256.242,511.754z"/>
<path style="fill:#FEAB00;" d="M255.758,398.995L23.733,362.655c40.369,87.853,129.052,148.902,232.025,149.094V398.995z"/>
<path style="fill:#00B379;" d="M410.608,267.047c-8.024,0-14.532,6.506-14.532,14.532v29.905c0,4.602-3.745,8.347-8.347,8.347
	h-16.685V213.254c0-8.026-6.507-14.532-14.532-14.532c-8.024,0-14.532,6.506-14.532,14.532v133.323h-22.767
	c-5.074,0-9.203-4.128-9.203-9.203v-20.809c0-8.026-6.507-14.532-14.532-14.532s-14.532,6.506-14.532,14.532v20.809
	c0,21.101,17.166,38.266,38.266,38.266h22.767v69.98c0,8.026,6.507,14.532,14.532,14.532c8.024,0,14.532-6.506,14.532-14.532
	v-96.727h16.685c20.628,0,37.41-16.783,37.41-37.41v-29.905C425.14,273.553,418.632,267.047,410.608,267.047z"/>
</svg>