<?xml version="1.0" encoding="iso-8859-1"?>
<!-- Uploaded to: SVG Repo, www.svgrepo.com, Generator: SVG Repo Mixer Tools -->
<svg height="800px" width="800px" version="1.1" id="Layer_1" xmlns="http://www.w3.org/2000/svg" xmlns:xlink="http://www.w3.org/1999/xlink" 
	 viewBox="0 0 512 512" xml:space="preserve">
<circle style="fill:#79C9DB;" cx="256" cy="256" r="256"/>
<path style="fill:#99DBFF;" d="M256,512C114.615,512,0,397.385,0,256S114.615,0,256,0V512z"/>
<path style="fill:#924045;" d="M417.476,57.36L231.975,211.882l-74.586-86.483c-5.953-6.903-16.167-8.175-23.632-2.943
	L3.485,213.783C1.206,227.519,0,241.617,0,256c0,141.385,114.615,256,256,256s256-114.615,256-256
	C512,175.841,475.149,104.301,417.476,57.36z"/>
<path style="fill:#AC4045;" d="M256,191.871l-24.025,20.012l-74.586-86.483c-5.953-6.903-16.167-8.175-23.632-2.943L3.485,213.783
	C1.206,227.519,0,241.617,0,256c0,141.385,114.615,256,256,256V191.871z"/>
<path style="fill:#D29500;" d="M0.054,250.816C0.019,252.54,0,254.268,0,256c0,141.385,114.615,256,256,256
	c129.132,0,235.914-95.616,253.456-219.908L0.054,250.816z"/>
<path style="fill:#FEAB00;" d="M0.054,250.816C0.019,252.54,0,254.268,0,256c0,141.385,114.615,256,256,256V271.555L0.054,250.816z"
	/>
<path style="fill:#39536F;" d="M16.682,347.043C53.389,443.473,146.684,512,256,512c87.025,0,163.895-43.434,210.15-109.796
	c-46.719,9.926-95.175,15.151-144.854,15.151C212.01,417.354,108.634,392.067,16.682,347.043z"/>
<path style="fill:#4D5CAE;" d="M16.682,347.043C53.389,443.473,146.684,512,256,512l-0.001-97.68
	C170.815,406.362,90.106,382.995,16.682,347.043z"/>
<g>
	<path style="fill:#924045;" d="M318.38,375.309c-8.033,0-14.545-6.512-14.545-14.545v-42.972c0-8.033,6.512-14.545,14.545-14.545
		s14.545,6.512,14.545,14.545v42.972C332.925,368.797,326.413,375.309,318.38,375.309z"/>
	<path style="fill:#924045;" d="M373.804,380.745c-8.033,0-14.545-6.512-14.545-14.545v-42.972c0-8.033,6.512-14.545,14.545-14.545
		c8.033,0,14.545,6.512,14.545,14.545v42.972C388.349,374.233,381.837,380.745,373.804,380.745z"/>
	<path style="fill:#924045;" d="M432.013,380.745c-8.033,0-14.545-6.512-14.545-14.545v-42.972c0-8.033,6.512-14.545,14.545-14.545
		c8.033,0,14.545,6.512,14.545,14.545v42.972C446.559,374.233,440.047,380.745,432.013,380.745z"/>
</g>
<path style="fill:#72D473;" d="M380.512,301.177l-48.56-126.017c-2.163-5.613-7.558-9.315-13.572-9.315
	c-6.015,0-11.409,3.702-13.572,9.315l-48.56,126.017c-1.724,4.473-1.133,9.508,1.58,13.46s7.199,6.314,11.993,6.314h97.12
	c4.794,0,9.28-2.362,11.993-6.314C381.645,310.685,382.236,305.649,380.512,301.177z"/>
<path style="fill:#00B379;" d="M427.796,317.971l-39.833-169.594c-1.543-6.573-7.408-11.219-14.16-11.219
	c-6.752,0-12.617,4.646-14.16,11.219l-39.833,169.594c-1.017,4.326,0,8.877,2.759,12.359s6.959,5.513,11.401,5.513h79.667
	c4.442,0,8.641-2.031,11.401-5.513C427.796,326.848,428.813,322.295,427.796,317.971z"/>
<path style="fill:#72D473;" d="M494.145,316.067l-48.56-126.017c-2.163-5.615-7.559-9.315-13.572-9.315c-0.025,0-0.049,0-0.074,0
	c-6.042,0.031-11.436,3.793-13.552,9.453l-47.105,126.017c-1.668,4.465-1.044,9.466,1.674,13.385
	c2.719,3.917,7.183,6.255,11.951,6.255h95.667c4.794,0,9.28-2.362,11.993-6.314C495.279,325.575,495.869,320.54,494.145,316.067z"/>
</svg>