<?xml version="1.0" encoding="iso-8859-1"?>
<!-- Uploaded to: SVG Repo, www.svgrepo.com, Generator: SVG Repo Mixer Tools -->
<svg height="800px" width="800px" version="1.1" id="Layer_1" xmlns="http://www.w3.org/2000/svg" xmlns:xlink="http://www.w3.org/1999/xlink" 
	 viewBox="0 0 512 512" xml:space="preserve">
<circle style="fill:#79C9DB;" cx="256" cy="256" r="256"/>
<path style="fill:#99DBFF;" d="M256,512C114.615,512,0,397.385,0,256S114.615,0,256,0V512z"/>
<g>
	<circle style="fill:#FFFFFF;" cx="106.371" cy="153.498" r="13.383"/>
	<circle style="fill:#FFFFFF;" cx="200.902" cy="65.745" r="13.383"/>
</g>
<circle style="fill:#D0D0D0;" cx="291.52" cy="123.127" r="13.383"/>
<circle style="fill:#FFFFFF;" cx="155.404" cy="208.771" r="13.383"/>
<circle style="fill:#D0D0D0;" cx="356.16" cy="208.771" r="13.383"/>
<polygon style="fill:#9F4F45;" points="397.751,376.236 428.225,376.236 256,204.01 59.047,400.963 170.356,400.963 
	254.236,497.447 "/>
<polygon style="fill:#C26053;" points="256,204.01 59.047,400.963 170.356,400.963 256,490.182 "/>
<circle style="fill:#D0D0D0;" cx="407.156" cy="140.116" r="13.383"/>
<path style="fill:#AC4045;" d="M15.207,343.092C50.842,441.6,145.196,512,256,512c11.044,0,21.924-0.7,32.601-2.057L78.762,300.106
	c-5.68-5.68-14.89-5.68-20.57,0L15.207,343.092z"/>
<g>
	<path style="fill:#924045;" d="M433.238,300.106L223.399,509.943C234.076,511.3,244.956,512,256,512
		c110.804,0,205.158-70.4,240.793-168.908l-42.986-42.986C448.128,294.426,438.918,294.426,433.238,300.106z"/>
	<path style="fill:#924045;" d="M255.536,477.808l-32.135,32.135C234.076,511.3,244.956,512,256,512L255.536,477.808z"/>
</g>
<polygon style="fill:#D0D0D0;" points="256,290.313 315.146,347.885 357.511,305.521 256,204.01 155.276,304.735 198.428,347.885 
	"/>
<polygon style="fill:#FFFFFF;" points="256,290.313 256,204.01 155.276,304.735 198.428,347.885 "/>
</svg>